<svg version="1.1" xmlns="http://www.w3.org/2000/svg" viewBox="0 0 202 266" width="202" height="266">
  <defs>
    <style>
      @font-face {
        font-family: "Virgil";
        src: url("https://excalidraw.com/FG_Virgil.ttf");
      }
      @font-face {
        font-family: "Cascadia";
        src: url("https://excalidraw.com/Cascadia.ttf");
      }
    </style>
  </defs>
  <g><g transform="translate(187.48261078272105 79.07932116352026)"><path d="M0.17269214987754822 0.8227667391300202 C0.46717921296755477 17.67445582350095, 1.3561395426591238 84.54519703189531, 1.5732645452022553 101.05286145806312 M1.3311638514697552 1.650274296551943 C1.3787093814710778 18.24721965705355, 1.347738752414783 84.3706511473159, 1.490568858832121 101.04938468530774" style="stroke: rgb(0, 0, 0); stroke-width: 1; fill: none;"></path></g></g><g><g transform="translate(191.48261078272105 79.57932116352026)"><path d="M-0.9231606796383858 -2.689166824519634 C-1.1728681400418282 14.682012040913104, 0.2532003089785577 85.23211470395327, 0.22821361273527163 102.89930034428835 M-2.6419685465097427 -4.063708571791649 C-1.6545704688628513 13.015564187963802, 3.734811556537946 82.70197897652784, 4.28353104531765 99.52708852827548" style="stroke: rgb(0, 0, 0); stroke-width: 4; fill: none;"></path></g></g><g><g transform="translate(12.98261078272104 78.07932116352026)"><path d="M2.7989671461284162 -2.2568892352283 C2.5430272889633976 13.870265552153189, 1.677651269485553 81.57109600380063, 1.0997262947261333 98.88797272518278 M-2.879301179945469 -3.707257147729397 C-3.4580727552374206 12.796698601146538, -1.5910653693477315 80.49688954899709, -0.3297780457139017 97.84395534425974" style="stroke: rgb(0, 0, 0); stroke-width: 4; fill: none;"></path></g></g><g><g transform="translate(19.98261078272104 181.07932116352026)"><path d="M1.2990830279886723 -0.7631559588015078 C15.278824466218552 11.802475502341984, 69.30245183482766 61.25251896604895, 83.49871269240975 73.96037531122565 M-4.129922616183758 3.865394193828106 C8.842840976218383 15.376763037542501, 67.2376753388842 59.466283278961974, 82.00313027650118 70.62157698839903" style="stroke: rgb(0, 0, 0); stroke-width: 4; fill: none;"></path></g></g><g><g transform="translate(106.98261078272104 8.079321163520262)"><path d="M-2.3861874815076587 2.7440801437944176 C12.353080435966453 15.212391203269366, 72.84946918524803 61.193707773710294, 87.69262110032142 72.51313361488283 M-0.6466043262183665 4.082569113224745 C13.37495873803894 16.113243877540032, 70.27211620842417 65.36149684314927, 84.93366447165609 76.3577113108337" style="stroke: rgb(0, 0, 0); stroke-width: 4; fill: none;"></path></g></g><g><g transform="translate(192.98261078272105 178.07932116352026)"><path d="M-0.22457743473351 0.22264797873795028 C-14.026877804473042 12.51483361509939, -69.91893781013786 61.41963350164394, -83.75941834039986 73.51729055829347 M0.05573567985557015 0.31700230822898456 C-14.186442237207666 12.520101082085942, -70.54915899456478 61.98284002985495, -84.4415794786904 74.35698413566686" style="stroke: rgb(0, 0, 0); stroke-width: 1; fill: none;"></path></g></g><g><g transform="translate(100.98261078272104 11.079321163520262)"><path d="M2.4762470360845326 -1.079321163520217 C-11.617737754558522 9.947516372178992, -68.3532366875559 55.878521655375756, -82.511884284392 66.63370811380446 M-2.580498282462359 -0.3525927405059339 C-16.54286838407318 11.126899070292714, -70.46670935665568 56.14597820714116, -84.20417696192861 67.73387074425817" style="stroke: rgb(0, 0, 0); stroke-width: 4; fill: none;"></path></g></g><g><g transform="translate(186.98261078272105 184.07932116352026)"><path d="M-1.1881316609680652 -2.703406589478254 C-15.080464556564886 7.595390056322017, -70.65237012977401 52.40813234522938, -84.33948070481419 63.5268979139626 M-2.192453776896 -0.5762645468115806 C-15.049562576512496 10.971535831987858, -67.05135750283797 57.315313841402535, -81.06593914180993 68.49168569236994" style="stroke: rgb(0, 0, 0); stroke-width: 4; fill: none;"></path></g></g></svg>
